<?xml version="1.0" standalone="no"?>
<!DOCTYPE svg PUBLIC "-//W3C//DTD SVG 20010904//EN"
 "http://www.w3.org/TR/2001/REC-SVG-20010904/DTD/svg10.dtd">
<svg version="1.0" xmlns="http://www.w3.org/2000/svg"
 width="1800.000000pt" height="1800.000000pt" viewBox="0 0 1800.000000 1800.000000"
 preserveAspectRatio="xMidYMid meet">
<metadata>
Created by potrace 1.11, written by Peter Selinger 2001-2013
</metadata>
<g transform="translate(0.000000,1800.000000) scale(0.100000,-0.100000)"
fill="#000000" stroke="none">
<path d="M0 9000 l0 -9000 9000 0 9000 0 0 9000 0 9000 -9000 0 -9000 0 0
-9000z m9575 4096 c521 -49 974 -142 1454 -298 1772 -577 3220 -1896 3965
-3612 559 -1286 684 -2733 355 -4118 l-42 -177 -31 22 c-25 17 -884 749 -964
821 l-23 21 -52 -55 c-29 -30 -91 -97 -139 -148 l-87 -94 -162 219 c-89 120
-168 224 -175 232 -11 12 -35 -6 -150 -113 l-137 -126 -61 53 c-471 411 -870
747 -880 744 -7 -3 -117 -87 -245 -188 l-233 -182 -319 -103 c-175 -57 -325
-104 -332 -104 -11 0 -146 130 -892 860 l-160 156 -222 83 -223 84 -231 346
c-128 190 -237 352 -244 359 -9 10 -81 -12 -372 -114 l-360 -126 -294 -318
-294 -317 -325 -84 c-185 -48 -331 -90 -340 -99 -8 -9 -163 -208 -345 -443
-181 -234 -333 -426 -337 -427 -3 0 -72 45 -153 100 -80 55 -149 100 -154 100
-4 0 -77 -103 -161 -230 l-153 -230 -309 0 -308 0 -328 254 -327 255 -296
-296 -296 -295 -326 21 -327 22 -420 -317 c-231 -174 -422 -315 -424 -313 -6
7 -74 301 -100 434 -71 368 -106 713 -113 1120 -6 332 4 554 38 860 135 1205
610 2355 1367 3310 283 356 636 714 992 1006 887 727 1961 1208 3100 1389 219
34 389 52 720 74 123 8 725 -4 875 -18z"/>
</g>
</svg>
